<svg width="40" height="40" viewBox="0 0 40 40" fill="none" xmlns="http://www.w3.org/2000/svg">
<path d="M7.62417 35.8773C11.0474 38.5746 15.1193 40.0001 19.399 40H19.3992C20.2616 40 21.1352 39.9403 21.9957 39.8226C27.1414 39.1192 31.7132 36.3956 34.8684 32.1531C36.7882 29.5721 38.0789 26.5237 38.6009 23.3373C38.6917 22.7835 38.329 22.2587 37.7909 22.1653L35.1926 21.7143C34.9338 21.6695 34.669 21.732 34.4554 21.8884C34.2418 22.0447 34.0974 22.2819 34.0538 22.548C33.656 24.9748 32.6717 27.2985 31.2068 29.268C28.8002 32.5037 25.3134 34.5812 21.3883 35.1176C20.7304 35.2077 20.0628 35.2532 19.4044 35.2532C16.1425 35.2532 13.0384 34.1658 10.427 32.1084C7.28332 29.6314 5.26483 26.0427 4.74361 22.0031C4.22226 17.9638 5.26062 13.9572 7.66712 10.7215C10.4921 6.92353 14.7886 4.74542 19.4551 4.74542C22.734 4.74542 25.8431 5.82973 28.4467 7.88091C29.3097 8.56084 30.0844 9.32037 30.769 10.1529L25.9028 9.26871C25.6451 9.22165 25.3793 9.2824 25.1644 9.437C24.9495 9.59172 24.8036 9.82782 24.758 10.0935L24.2999 12.7642C24.205 13.3174 24.5638 13.8449 25.1011 13.9425L36.7785 16.0644C36.8357 16.0748 36.893 16.0798 36.9503 16.0798C37.1516 16.0798 37.3497 16.0165 37.517 15.8961C37.7317 15.7413 37.8779 15.5053 37.9233 15.2396L39.9848 3.22079C40.0797 2.66765 39.721 2.14014 39.1836 2.04237L36.5886 1.57087C36.0504 1.47282 35.5386 1.84249 35.4438 2.39563L34.5762 7.45375C33.6029 6.21132 32.4853 5.08565 31.2497 4.11213C27.8354 1.42197 23.7581 0 19.4583 0C13.3418 0 7.70954 2.85628 4.00552 7.8363C0.850384 12.0789 -0.510908 17.332 0.172505 22.6281C0.856049 27.9246 3.50248 32.6298 7.62417 35.8773Z"/>
</svg>
